<?xml version="1.0" standalone="no"?>
<!DOCTYPE svg PUBLIC "-//W3C//DTD SVG 20010904//EN"
 "http://www.w3.org/TR/2001/REC-SVG-20010904/DTD/svg10.dtd">
<svg version="1.0" xmlns="http://www.w3.org/2000/svg"
 width="259.000000pt" height="259.000000pt" viewBox="0 0 259.000000 259.000000"
 preserveAspectRatio="xMidYMid meet">
<metadata>
Created by potrace 1.14, written by Peter Selinger 2001-2017
</metadata>
<g transform="translate(0.000000,259.000000) scale(0.100000,-0.100000)"
fill="#000000" stroke="none">
<path d="M1535 1693 l-178 -136 -115 -1 c-105 -1 -116 1 -131 20 -39 50 -103
58 -149 19 -38 -32 -48 -72 -29 -117 16 -39 70 -70 107 -63 29 6 70 32 77 51
4 12 46 14 252 14 240 0 247 -1 248 -20 2 -23 22 -21 -232 -23 l-180 -2 -39
-30 c-38 -29 -44 -30 -150 -32 l-111 -1 -53 54 c-44 45 -52 58 -45 77 25 72
-20 147 -89 147 -47 0 -82 -21 -98 -60 -27 -64 17 -140 81 -140 15 0 34 -6 41
-14 7 -7 33 -35 57 -61 72 -77 54 -75 555 -75 381 0 445 -2 449 -15 4 -8 1
-18 -6 -22 -7 -4 -127 -8 -267 -8 l-255 0 1 -27 c1 -16 -4 -28 -10 -29 -14 -1
-378 -1 -389 0 -4 1 -31 24 -60 52 -29 28 -62 55 -75 60 -13 5 -69 9 -124 9
l-102 0 -27 33 c-23 27 -33 32 -73 32 -58 0 -95 -33 -103 -92 -7 -54 33 -102
93 -110 36 -5 44 -1 79 31 38 36 38 36 127 36 97 0 125 -10 165 -59 l21 -27
-40 -42 -40 -42 -196 0 -197 0 -28 29 c-58 62 -155 44 -175 -32 -30 -111 99
-182 175 -96 l26 29 206 0 c227 0 223 -1 286 67 17 18 41 36 55 41 39 13 1077
9 1091 -5 30 -30 -4 -33 -342 -33 -264 0 -339 -3 -340 -12 -1 -7 -1 -23 -2
-35 0 -25 5 -24 -137 -25 -77 -1 -101 -10 -157 -60 -24 -21 -46 -39 -50 -39
-5 -1 -59 -2 -122 -3 -107 -1 -114 0 -131 21 -23 29 -75 51 -106 45 -31 -6
-72 -44 -80 -76 -15 -62 31 -126 90 -126 45 0 84 18 91 42 8 22 -5 20 145 23
69 1 130 3 136 4 7 0 36 22 65 49 l52 47 349 1 c263 0 353 -3 366 -12 9 -7 13
-16 9 -21 -5 -4 -124 -10 -265 -13 l-257 -5 2 -32 c1 -30 -1 -33 -25 -33 -38
0 -80 -24 -129 -73 -35 -35 -48 -42 -87 -44 -39 -2 -49 2 -79 32 -28 28 -43
35 -75 35 -129 0 -140 -183 -12 -203 32 -5 88 21 96 45 4 14 16 18 52 19 26 1
53 1 59 0 21 -3 50 17 97 64 24 25 48 46 52 46 40 7 383 4 396 -3 10 -4 15
-15 12 -23 -5 -12 -39 -15 -182 -17 l-177 -3 1 -49 c3 -84 -22 -80 451 -81
230 0 431 3 447 7 16 4 33 13 38 20 4 7 8 158 8 336 0 250 3 322 13 323 6 0
47 2 90 3 54 1 81 6 87 15 16 27 0 66 -43 104 -47 42 -503 398 -556 434 -64
43 -80 37 -276 -114z m-800 -143 c0 -26 -20 -36 -44 -21 -21 14 -4 53 22 49
16 -2 22 -10 22 -28z m319 -23 c8 -13 6 -20 -9 -31 -34 -25 -68 9 -38 39 18
18 32 16 47 -8z m-620 -222 c17 -17 12 -40 -9 -49 -14 -5 -45 18 -45 33 0 9
22 31 31 31 4 0 14 -7 23 -15z m-190 -249 c9 -13 7 -20 -8 -31 -23 -17 -46 -4
-46 25 0 32 36 36 54 6z m375 -174 c7 -13 6 -23 -1 -30 -17 -17 -45 -15 -52 3
-15 39 33 64 53 27z m286 -212 c0 -18 -6 -26 -23 -28 -24 -4 -38 18 -28 44 3
9 15 14 28 12 17 -2 23 -10 23 -28z"/>
</g>
</svg>
